<?xml version="1.0" standalone="no"?>
<!DOCTYPE svg PUBLIC "-//W3C//DTD SVG 20010904//EN"
 "http://www.w3.org/TR/2001/REC-SVG-20010904/DTD/svg10.dtd">
<svg version="1.0" xmlns="http://www.w3.org/2000/svg"
 width="960.000000pt" height="960.000000pt" viewBox="0 0 960.000000 960.000000"
 preserveAspectRatio="xMidYMid meet">
<metadata>
Created by potrace 1.14, written by Peter Selinger 2001-2017
</metadata>
<g transform="translate(0.000000,960.000000) scale(0.100000,-0.100000)"
fill="#000000" stroke="none">
<path d="M417 7384 c-3 -4 -56 -6 -116 -5 -84 1 -111 -1 -112 -11 -4 -65 0
-570 5 -575 3 -4 397 -6 875 -6 l869 0 1 -2416 c0 -1329 0 -2424 0 -2434 1
-16 23 -17 357 -15 l355 3 0 2431 0 2431 867 1 c477 0 872 1 878 1 7 1 10 97
10 296 l0 295 -110 1 c-61 1 -115 0 -121 -1 -5 -2 -21 -2 -35 -1 -14 2 -31 2
-37 2 -7 -1 -19 -1 -25 -2 -7 0 -188 -1 -403 0 -214 0 -397 0 -405 -1 -8 0
-62 0 -120 1 -58 0 -112 0 -120 0 -8 -1 -170 -1 -360 -1 -190 1 -352 1 -360 0
-8 0 -62 0 -120 1 -58 0 -112 0 -120 0 -8 -1 -98 -1 -200 0 -102 0 -192 0
-200 -1 -8 0 -62 0 -120 1 -58 0 -112 0 -120 0 -20 -1 -370 0 -495 2 -55 1
-107 1 -115 1 -65 -3 -385 0 -390 3 -4 2 -10 2 -13 -1z"/>
<path d="M5500 7380 l-285 -5 0 -2727 0 -2728 363 0 362 0 0 1105 0 1105 28 1
c15 0 300 1 634 1 640 1 629 1 644 -44 3 -11 21 -46 39 -77 18 -31 56 -101 85
-156 29 -55 65 -122 80 -150 15 -27 51 -95 80 -150 30 -55 91 -169 137 -254
46 -85 83 -156 83 -159 0 -2 9 -17 21 -33 11 -16 17 -29 12 -29 -4 0 -3 -4 2
-8 6 -4 25 -36 44 -72 19 -36 46 -87 61 -115 15 -27 50 -93 78 -145 28 -52 64
-120 81 -150 16 -30 42 -80 57 -110 15 -30 30 -57 33 -60 3 -3 25 -41 47 -85
41 -79 97 -185 161 -300 18 -33 38 -72 44 -87 l11 -28 389 0 389 0 0 21 c0 19
-36 93 -113 229 -29 52 -60 108 -97 175 -18 33 -53 95 -76 137 -24 43 -44 82
-44 87 0 5 -3 11 -7 13 -5 2 -16 19 -27 38 -10 19 -34 64 -54 100 -19 36 -48
88 -62 115 -15 28 -42 74 -59 103 -17 29 -31 55 -31 58 0 3 -9 19 -21 35 -11
16 -17 29 -13 29 4 0 1 8 -7 18 -15 18 -22 30 -68 115 -38 71 -75 137 -129
232 -25 44 -59 105 -74 135 -16 30 -37 69 -47 85 -10 17 -37 66 -61 110 -23
44 -55 100 -69 125 -14 24 -37 66 -51 91 -24 46 -114 209 -152 277 -10 18 -18
34 -18 37 0 2 17 9 38 16 81 26 294 143 387 211 108 80 238 207 300 293 16 22
34 45 40 50 12 12 90 142 105 177 5 12 14 30 19 38 12 19 39 83 40 93 1 4 8
24 17 45 8 20 17 44 19 52 2 8 11 40 20 70 21 76 25 101 42 235 12 104 5 408
-12 495 -3 14 -8 41 -11 60 -17 101 -75 293 -108 355 -6 11 -11 22 -11 25 -3
19 -67 129 -118 203 -55 81 -174 212 -254 279 -31 27 -211 148 -218 148 -3 0
-41 18 -86 40 -45 22 -86 40 -91 40 -4 0 -27 9 -51 19 -73 33 -206 71 -337 97
-100 19 -132 24 -185 29 -33 4 -73 8 -90 10 -70 9 -389 18 -485 14 -25 -1
-547 0 -655 2 -55 1 -107 1 -115 0 -8 -1 -26 -1 -40 0 -14 0 -32 0 -40 0 -35
-1 -224 0 -229 2 -3 1 -134 0 -291 -3z m1770 -604 c110 -16 150 -23 205 -38
22 -5 47 -11 55 -13 43 -9 184 -71 225 -99 17 -12 32 -20 35 -19 11 5 140
-100 183 -149 82 -92 76 -83 127 -188 42 -85 60 -131 76 -195 4 -16 8 -34 10
-40 32 -130 38 -426 10 -506 -3 -8 -7 -25 -10 -39 -11 -68 -67 -209 -107 -270
-9 -14 -29 -45 -45 -70 -65 -101 -225 -236 -360 -304 -59 -29 -222 -84 -271
-91 -77 -11 -99 -15 -123 -21 -14 -4 -321 -8 -682 -10 l-658 -2 0 1033 0 1033
643 -3 c353 -2 662 -6 687 -9z"/>
</g>
</svg>
